#!OML:ASF H:\Dans Jumps\Project 1\Capture day 1\Session 1\subject.ASF
:FULLY-SPECIFIED
:DEGREES
181
root 0.640322 17.5645 -14.5028 10.1107 -2.34211 -1.09853
lowerback 2.16136 -0.215676 0.0329494
upperback 5.57527 -0.351128 1.65042
thorax 4.54886 -0.216065 1.68
lowerneck -12.3666 1.05447 -1.24846
upperneck 29.831 1.89897 -0.30842
head 11.7851 0.664691 0.357421
rclavicle 4.96962e-015 -1.27222e-014
rhumerus -18.3323 -5.61963 -84.2382
rradius 31.3948
rwrist 25.847
rhand -18.2871 -26.9012
rfingers 7.12502
rthumb 7.99325 -56.7301
lclavicle 4.96962e-015 -1.27222e-014
lhumerus -16.6421 -11.2661 90.6703
lradius 26.3251
lwrist 7.06586
lhand -24.7241 -2.84724
lfingers 7.12502
lthumb 1.77806 27.1251
rfemur -22.4465 -1.85163 19.4259
rtibia 26.9501
rfoot -13.336 -4.33053
rtoes 11.5559
lfemur -20.9745 6.32161 -19.5253
ltibia 24.1242
lfoot -10.5783 7.6016
ltoes 5.92155
182
root 0.642427 17.5645 -14.5161 10.224 -2.35333 -1.0902
lowerback 2.25346 -0.211223 0.0352405
upperback 5.62559 -0.345154 1.65215
thorax 4.54932 -0.213295 1.681
lowerneck -12.3624 1.0443 -1.24945
upperneck 29.857 1.88841 -0.320977
head 11.7948 0.657981 0.351585
rclavicle -8.94531e-016 5.96354e-015
rhumerus -18.2866 -5.58493 -84.2263
rradius 31.3945
rwrist 25.8214
rhand -18.3018 -26.8917
rfingers 7.12502
rthumb 7.97902 -56.7211
lclavicle -8.94531e-016 5.96354e-015
lhumerus -16.5542 -11.2576 90.64
lradius 26.2501
lwrist 6.97885
lhand -24.695 -2.78024
lfingers 7.12502
lthumb 1.80615 27.1919
rfemur -22.6552 -1.84128 19.4151
rtibia 27.0049
rfoot -13.2936 -4.33667
rtoes 11.5475
lfemur -21.1795 6.35256 -19.5628
ltibia 24.1711
lfoot -10.554 7.55924
ltoes 5.94927
183
root 0.644404 17.5646 -14.5287 10.3289 -2.36767 -1.08164
lowerback 2.34157 -0.205686 0.0351061
upperback 5.67589 -0.337756 1.65367
thorax 4.55201 -0.209925 1.68315
lowerneck -12.3561 1.03148 -1.25914
upperneck 29.8979 1.87322 -0.323046
head 11.8096 0.649381 0.350583
rclavicle 1.78906e-015 9.93923e-015
rhumerus -18.2494 -5.55618 -84.2116
rradius 31.3834
rwrist 25.8092
rhand -18.305 -26.8859
rfingers 7.12502
rthumb 7.97592 -56.7154
lclavicle 1.78906e-015 9.93923e-015
lhumerus -16.4637 -11.234 90.6092
lradius 26.1585
lwrist 6.88906
lhand -24.6605 -2.73014
lfingers 7.12502
lthumb 1.83946 27.2417
rfemur -22.8492 -1.83045 19.4036
rtibia 27.0539
rfoot -13.2548 -4.33977
rtoes 11.5415
lfemur -21.3679 6.38435 -19.5989
ltibia 24.211
lfoot -10.5315 7.5162
ltoes 5.96934
184
root 0.646253 17.5646 -14.5405 10.4252 -2.38352 -1.07362
lowerback 2.42647 -0.199493 0.0340046
upperback 5.72652 -0.329504 1.65472
thorax 4.55687 -0.206172 1.68535
lowerneck -12.3507 1.01855 -1.27506
upperneck 29.9579 1.85677 -0.315356
head 11.8321 0.640519 0.35422
rclavicle -5.96354e-016 -1.59028e-015
rhumerus -18.2157 -5.53901 -84.1958
rradius 31.3576
rwrist 25.8151
rhand -18.2977 -26.8792
rfingers 7.12502
rthumb 7.98305 -56.7084
lclavicle -5.96354e-016 -1.59028e-015
lhumerus -16.3706 -11.2073 90.5769
lradius 26.0536
lwrist 6.80986
lhand -24.6206 -2.68243
lfingers 7.12502
lthumb 1.87797 27.2891
rfemur -23.0287 -1.81694 19.3919
rtibia 27.0978
rfoot -13.2177 -4.34219
rtoes 11.5392
lfemur -21.5408 6.4144 -19.6325
ltibia 24.2459
lfoot -10.5105 7.47747
ltoes 5.98171
